{"title":"Magica Magica Emi S01 Ep.01-09 [DVDRip-XviD-Ita/Jap-Ac3][Nautilu","uid":6258199,"size":2231717888,"categoryP":"video","categoryS":"tv_shows","magnet":"?xt=urn:btih:9d8b194c97a0caf44e5c0b3e04b09ef9d33d7154&amp;dn=Magica+Magica+Emi+S01+Ep.01-09+%5BDVDRip-XviD-Ita%2FJap-Ac3%5D%5BNautilu&amp;tr=udp%3A%2F%2Ftracker.openbittorrent.com%3A80&amp;tr=udp%3A%2F%2Fopen.demonii.com%3A1337&amp;tr=udp%3A%2F%2Ftracker.coppersurfer.tk%3A6969&amp;tr=udp%3A%2F%2Fexodus.desync.com%3A6969","seeders":1,"leechers":0,"uploader":"maxneb","files":10,"time":1300657390,"description":"Magica Magica Emi S01 Ep.01-09 [DVDRip-XviD-Ita/Jap-Ac3][Nautilus-Bt]\n\n\n\nGeneral\nComplete name                    : G:\\Magica Magica Emi - 05 - La festa delle stelle [DVDRip Ita Jap][RiP By MaX].avi\nFormat                           : AVI\nFormat/Info                      : Audio Video Interleave\nFile size                        : 235 MiB\nDuration                         : 21mn 1s\nOverall bit rate                 : 1 563 Kbps\nWriting application              : VirtualDubMod 1.5.10.2 (build 2540/release)\nWriting library                  : VirtualDubMod build 2540/release\n\nVideo\nID                               : 0\nFormat                           : MPEG-4 Visual\nFormat profile                   : Advanced Simple@L5\nFormat settings, BVOP            : Yes\nFormat settings, QPel            : No\nFormat settings, GMC             : No warppoints\nFormat settings, Matrix          : Default (H.263)\nCodec ID                         : XVID\nCodec ID/Hint                    : XviD\nDuration                         : 21mn 1s\nBit rate                         : 1 293 Kbps\nWidth                            : 640 pixels\nHeight                           : 480 pixels\nDisplay aspect ratio             : 4:3\nFrame rate                       : 25.000 fps\nColor space                      : YUV\nChroma subsampling               : 4:2:0\nBit depth                        : 8 bits\nScan type                        : Progressive\nBits/(Pixel*Frame)               : 0.168\nStream size                      : 194 MiB (83%)\nWriting library                  : XviD 1.2.1 (UTC 2008-12-04)\n\nAudio #1\nID                               : 1\nFormat                           : AC-3\nFormat/Info                      : Audio Coding 3\nMode extension                   : CM (complete main)\nCodec ID                         : 2000\nDuration                         : 21mn 1s\nBit rate mode                    : Constant\nBit rate                         : 128 Kbps\nChannel(s)                       : 2 channels\nChannel positions                : Front: L R\nSampling rate                    : 48.0 KHz\nBit depth                        : 16 bits\nVideo delay                      : 24ms\nStream size                      : 19.2 MiB (8%)\nAlignment                        : Split accross interleaves\nInterleave, duration             : 40 ms (1.00 video frame)\nInterleave, preload duration     : 500 ms\n\nAudio #2\nID                               : 2\nFormat                           : AC-3\nFormat/Info                      : Audio Coding 3\nMode extension                   : CM (complete main)\nCodec ID                         : 2000\nDuration                         : 21mn 1s\nBit rate mode                    : Constant\nBit rate                         : 128 Kbps\nChannel(s)                       : 2 channels\nChannel positions                : Front: L R\nSampling rate                    : 48.0 KHz\nBit depth                        : 16 bits\nVideo delay                      : 24ms\nStream size                      : 19.2 MiB (8%)\nAlignment                        : Split accross interleaves\nInterleave, duration             : 40 ms (1.00 video frame)\nInterleave, preload duration     : 500 ms","torrent":{"xt":"urn:btih:9d8b194c97a0caf44e5c0b3e04b09ef9d33d7154","amp;dn":"Magica+Magica+Emi+S01+Ep.01-09+%5BDVDRip-XviD-Ita%2FJap-Ac3%5D%5BNautilu","amp;tr":["udp%3A%2F%2Ftracker.openbittorrent.com%3A80","udp%3A%2F%2Fopen.demonii.com%3A1337","udp%3A%2F%2Ftracker.coppersurfer.tk%3A6969","udp%3A%2F%2Fexodus.desync.com%3A6969"],"infoHash":"9d8b194c97a0caf44e5c0b3e04b09ef9d33d7154","infoHashBuffer":{"type":"Buffer","data":[157,139,25,76,151,160,202,244,78,92,11,62,4,176,158,249,211,61,113,84]},"announce":[],"urlList":[]}}